<?xml version="1.0" encoding="utf-8"?>
<!-- Generator: Adobe Illustrator 22.0.1, SVG Export Plug-In . SVG Version: 6.00 Build 0)  -->
<svg version="1.1" id="Layer_1" xmlns="http://www.w3.org/2000/svg" xmlns:xlink="http://www.w3.org/1999/xlink" x="0px" y="0px"
	 viewBox="0 0 373.9 133.5" style="enable-background:new 0 0 373.9 133.5;" xml:space="preserve">
<style type="text/css">
	.st0{fill:#fff;}
</style>
<path class="st0" d="M41.4,69.2c0,2.9-0.5,5.6-1.6,8.1s-2.6,4.7-4.5,6.6s-4.1,3.4-6.6,4.5s-5.2,1.6-8,1.6c-2.8,0-5.5-0.5-8-1.6
	S8,85.8,6.1,83.9c-1.9-1.9-3.4-4.1-4.5-6.6S0,72.1,0,69.2v-68C0,0.5,0.6,0,1.2,0h10.3c0.7,0,1.2,0.6,1.2,1.2v66.7
	c0,3.2,0.8,5.5,2.3,7s3.4,2.3,5.6,2.3c2.3,0,4.1-0.8,5.6-2.3s2.3-3.8,2.3-7V1.3c0-0.7,0.6-1.2,1.2-1.2H40c0.7,0,1.2,0.6,1.2,1.2
	v67.9H41.4z"/>
<path class="st0" d="M54.1,1.3c0-0.7,0.6-1.2,1.2-1.2h19.3c15,0,22.6,8.7,22.6,26.2c0,5.2-0.8,9.6-2.4,13.4
	c-1.5,3.4-4.1,6.3-7.7,8.5c-0.5,0.3-0.7,0.9-0.6,1.5l12.9,38.1c0.3,0.8-0.3,1.6-1.2,1.6H87.3c-0.5,0-1-0.4-1.2-0.9L74.7,52.1
	c-0.2-0.5-0.6-0.9-1.2-0.9h-5.4c-0.7,0-1.2,0.6-1.2,1.2V88c0,0.7-0.6,1.2-1.2,1.2H55.4c-0.7,0-1.2-0.6-1.2-1.2V1.3H54.1z M66.9,39.3
	c0,0.3,0.3,0.6,0.6,0.6h6.6c2.3,0,4.1-0.3,5.4-0.9s2.4-1.5,3.1-2.7s1.2-2.6,1.4-4.3c0.3-1.7,0.4-3.7,0.4-6s-0.1-4.2-0.4-6
	c-0.3-1.7-0.8-3.2-1.6-4.4c-0.8-1.2-1.9-2.1-3.3-2.7c-1.4-0.6-3.3-0.9-5.6-0.9h-6c-0.3,0-0.6,0.3-0.6,0.6V39.3z"/>
<path class="st0" d="M108.2,1.3c0-0.7,0.6-1.2,1.2-1.2h17.4c4.1,0,7.6,0.6,10.5,1.9c2.9,1.3,5.2,2.9,7.1,5c1.8,2.1,3.2,4.5,3.9,7.2
	c0.8,2.7,1.2,5.5,1.2,8.5V26c0,2.4-0.2,4.5-0.6,6.1c-0.4,1.7-0.9,3.1-1.7,4.4s-1.7,2.4-2.8,3.3c-1.1,1-2.3,1.9-3.8,2.7
	c3,1.4,5.2,3.5,6.6,6.3c1.4,2.8,2.1,6.5,2.1,11.2v5c0,7.9-1.9,13.9-5.7,18.1s-9.9,6.3-18.2,6.3h-16.2c-0.7,0-1.2-0.6-1.2-1.2V1.3
	H108.2z M121,36c0,0.3,0.3,0.6,0.6,0.6h5.1c4.3,0,7.1-1.1,8.6-3.2s2.2-5.2,2.2-9.3c0-4-0.8-7-2.4-9c-1.6-2-4.6-3-8.8-3h-4.6
	c-0.3,0-0.6,0.3-0.6,0.6V36H121z M121,75.9c0,0.3,0.3,0.6,0.6,0.6h4.9c2.6,0,4.6-0.4,6.1-1.1c1.5-0.8,2.6-1.8,3.3-3.1
	c0.8-1.3,1.2-2.9,1.4-4.8c0.2-1.8,0.3-3.8,0.3-6c0-2.3-0.1-4.2-0.4-5.9c-0.3-1.7-0.8-3.1-1.6-4.2s-1.9-2-3.3-2.6
	c-1.4-0.6-3.3-0.9-5.6-0.9h-5c-0.3,0-0.6,0.3-0.6,0.6L121,75.9L121,75.9z"/>
<path class="st0" d="M164.8,89.3h-10.2c-0.8,0-1.4-0.7-1.2-1.5L172.8,1c0.1-0.6,0.6-1,1.2-1h8.7c0.6,0,1.1,0.4,1.2,1l19.4,86.8
	c0.2,0.8-0.4,1.5-1.2,1.5h-10.2c-0.6,0-1.1-0.4-1.2-1l-12.2-62.6h-0.4L166,88.2C165.9,88.9,165.4,89.3,164.8,89.3z"/>
<path class="st0" d="M211.3,0h10.2c0.5,0,1,0.3,1.2,0.8l19,53h0.3V1.3c0-0.7,0.6-1.2,1.2-1.2h10.3c0.7,0,1.2,0.6,1.2,1.2v86.8
	c0,0.7-0.6,1.2-1.2,1.2h-9.9c-0.5,0-1-0.3-1.2-0.8l-19.3-52.9h-0.3V88c0,0.7-0.6,1.2-1.2,1.2h-10.3c-0.7,0-1.2-0.6-1.2-1.2V1.3
	C210.1,0.6,210.7,0,211.3,0z"/>
<path class="st0" d="M268.7,0H279c0.7,0,1.2,0.6,1.2,1.2V88c0,0.7-0.6,1.2-1.2,1.2h-10.3c-0.7,0-1.2-0.6-1.2-1.2V1.3
	C267.5,0.6,268.1,0,268.7,0z"/>
<path class="st0" d="M288.6,77.8l23.7-64.9c0.1-0.4-0.2-0.8-0.6-0.8h-20.6c-0.7,0-1.2-0.6-1.2-1.2V1.4c0-0.7,0.6-1.2,1.2-1.2h34.2
	c0.7,0,1.2,0.6,1.2,1.2v8.7c0,0.1,0,0.3-0.1,0.4l-24.2,66c-0.1,0.4,0.2,0.8,0.6,0.8h22.4c0.7,0,1.2,0.6,1.2,1.2V88
	c0,0.7-0.6,1.2-1.2,1.2h-35.5c-0.7,0-1.2-0.6-1.2-1.2v-9.8C288.6,78.1,288.6,77.9,288.6,77.8z"/>
<path class="st0" d="M336.4,0H372c0.7,0,1.2,0.6,1.2,1.2v9.6c0,0.7-0.6,1.2-1.2,1.2h-23.5c-0.3,0-0.6,0.3-0.6,0.6v25
	c0,0.3,0.3,0.6,0.6,0.6h20.2c0.7,0,1.2,0.6,1.2,1.2v9.5c0,0.7-0.6,1.2-1.2,1.2h-20.2c-0.3,0-0.6,0.3-0.6,0.6v25
	c0,0.3,0.3,0.6,0.6,0.6H372c0.7,0,1.2,0.6,1.2,1.2v10.3c0,0.7-0.6,1.2-1.2,1.2h-35.6c-0.7,0-1.2-0.6-1.2-1.2V1.3
	C335.1,0.6,335.7,0,336.4,0z"/>
<g>
	<path class="st0" d="M212.8,130.8h8.4v2.3h-11.1v-21.3h2.7V130.8z"/>
	<path class="st0" d="M237.7,124.3c0,2.9-0.6,5.2-1.9,6.7s-3,2.4-5.3,2.4c-2.2,0-3.9-0.8-5.2-2.3c-1.3-1.5-1.9-3.7-2-6.5v-4
		c0-2.9,0.6-5.1,1.9-6.7c1.3-1.6,3-2.4,5.3-2.4c2.2,0,4,0.8,5.3,2.3s1.9,3.8,1.9,6.6L237.7,124.3L237.7,124.3z M235.1,120.6
		c0-2.3-0.4-3.9-1.1-5s-1.9-1.6-3.4-1.6s-2.6,0.6-3.3,1.7c-0.8,1.1-1.1,2.8-1.2,4.9v3.8c0,2.2,0.4,3.8,1.1,5s1.9,1.7,3.4,1.7
		s2.6-0.5,3.3-1.6c0.7-1.1,1.1-2.7,1.1-4.9v-4H235.1z"/>
	<path class="st0" d="M251.3,127.7c0-1.1-0.3-1.9-0.9-2.4c-0.6-0.6-1.6-1.1-3.1-1.7c-1.5-0.5-2.7-1.1-3.5-1.7
		c-0.8-0.6-1.4-1.3-1.8-2c-0.4-0.8-0.6-1.6-0.6-2.6c0-1.7,0.6-3.1,1.7-4.2s2.6-1.6,4.4-1.6c1.3,0,2.4,0.3,3.3,0.8
		c1,0.6,1.7,1.3,2.3,2.3c0.5,1,0.8,2.1,0.8,3.3h-2.7c0-1.3-0.3-2.3-1-3.1c-0.6-0.7-1.5-1.1-2.7-1.1c-1.1,0-1.9,0.3-2.5,0.9
		c-0.6,0.6-0.9,1.5-0.9,2.6c0,0.9,0.3,1.7,1,2.3c0.6,0.6,1.6,1.1,3,1.6c2.1,0.7,3.6,1.6,4.5,2.6s1.4,2.3,1.4,4s-0.6,3.1-1.7,4.2
		c-1.1,1-2.7,1.6-4.6,1.6c-1.2,0-2.4-0.3-3.4-0.8s-1.9-1.3-2.5-2.3s-0.9-2.1-0.9-3.4h2.7c0,1.3,0.4,2.3,1.1,3.1
		c0.7,0.7,1.7,1.1,3,1.1c1.2,0,2.1-0.3,2.7-0.9C251,129.6,251.3,128.8,251.3,127.7z"/>
	<path class="st0" d="M274.1,127.5h-7.2l-1.7,5.6h-2.8l6.9-21.3h2.3l6.9,21.3h-2.8L274.1,127.5z M267.6,125.2h5.8l-2.9-9.7
		L267.6,125.2z"/>
	<path class="st0" d="M295.6,133.1h-2.7l-8.5-16.4v16.4h-2.7v-21.3h2.7l8.6,16.5v-16.5h2.7v21.3H295.6z"/>
	<path class="st0" d="M313.5,130.5l-0.5,0.6c-1.3,1.6-3.3,2.4-5.9,2.4c-2.3,0-4.1-0.8-5.4-2.3s-2-3.7-2-6.5v-4.2
		c0-3,0.6-5.2,1.8-6.7s3-2.2,5.4-2.2c2,0,3.6,0.6,4.8,1.7c1.1,1.1,1.8,2.7,1.9,4.8h-2.7c-0.1-1.3-0.5-2.4-1.1-3.1
		c-0.6-0.7-1.6-1.1-2.9-1.1c-1.5,0-2.7,0.5-3.4,1.5s-1.1,2.6-1.1,4.8v4.4c0,2.1,0.4,3.8,1.2,4.9c0.8,1.1,2,1.7,3.5,1.7
		c1.4,0,2.5-0.3,3.3-1.1l0.4-0.4v-4.9h-3.9v-2.3h6.6L313.5,130.5L313.5,130.5z"/>
	<path class="st0" d="M327.9,123.2h-7.5v7.6h8.8v2.3h-11.5v-21.3H329v2.3h-8.6v6.9h7.5V123.2L327.9,123.2z"/>
	<path class="st0" d="M335.2,130.8h8.4v2.3h-11.1v-21.3h2.7V130.8z"/>
	<path class="st0" d="M357.1,123.2h-7.5v7.6h8.8v2.3h-11.5v-21.3h11.3v2.3h-8.6v6.9h7.5V123.2L357.1,123.2z"/>
	<path class="st0" d="M371.1,127.7c0-1.1-0.3-1.9-0.9-2.4c-0.6-0.6-1.6-1.1-3.1-1.7c-1.5-0.5-2.7-1.1-3.5-1.7
		c-0.8-0.6-1.4-1.3-1.8-2c-0.4-0.8-0.6-1.6-0.6-2.6c0-1.7,0.6-3.1,1.7-4.2c1.1-1.1,2.6-1.6,4.4-1.6c1.3,0,2.4,0.3,3.3,0.8
		c1,0.6,1.7,1.3,2.3,2.3c0.5,1,0.8,2.1,0.8,3.3h-2.6c0-1.3-0.3-2.3-1-3.1c-0.6-0.7-1.5-1.1-2.7-1.1c-1.1,0-1.9,0.3-2.5,0.9
		c-0.6,0.6-0.9,1.5-0.9,2.6c0,0.9,0.3,1.7,1,2.3c0.6,0.6,1.6,1.1,3,1.6c2.1,0.7,3.6,1.6,4.5,2.6c0.9,1,1.4,2.3,1.4,4
		s-0.6,3.1-1.7,4.2c-1.1,1-2.7,1.6-4.6,1.6c-1.2,0-2.4-0.3-3.4-0.8s-1.9-1.3-2.5-2.3c-0.6-1-0.9-2.1-0.9-3.4h2.7
		c0,1.3,0.4,2.3,1.1,3.1c0.7,0.7,1.7,1.1,3,1.1c1.2,0,2.1-0.3,2.7-0.9C370.8,129.6,371.1,128.8,371.1,127.7z"/>
</g>
</svg>
